<mxfile host="app.diagrams.net" modified="2020-09-01T10:00:04.058Z" agent="5.0 (Windows NT 10.0; Win64; x64) AppleWebKit/537.36 (KHTML, like Gecko) Chrome/84.0.4147.135 Safari/537.36" etag="KCP9_eDs6AOgO3v1rJu5" version="13.6.6" type="github">
  <diagram id="3GPW2c9I1NT2b1EZKUmE" name="Page-1">
    <mxGraphModel dx="1185" dy="662" grid="1" gridSize="10" guides="1" tooltips="1" connect="1" arrows="1" fold="1" page="1" pageScale="1" pageWidth="827" pageHeight="1169" math="0" shadow="0">
      <root>
        <mxCell id="0" />
        <mxCell id="1" parent="0" />
        <mxCell id="-MDlwSNwOmf_xlIrgJuO-2" value="" style="strokeWidth=2;html=1;shape=mxgraph.flowchart.annotation_1;align=left;pointerEvents=1;" vertex="1" parent="1">
          <mxGeometry x="90" y="590" width="20" height="380" as="geometry" />
        </mxCell>
        <mxCell id="-MDlwSNwOmf_xlIrgJuO-3" value="预&lt;br style=&quot;font-size: 18px;&quot;&gt;警&lt;br style=&quot;font-size: 18px;&quot;&gt;一&lt;br style=&quot;font-size: 18px;&quot;&gt;张&lt;br style=&quot;font-size: 18px;&quot;&gt;图" style="text;html=1;align=center;verticalAlign=middle;resizable=0;points=[];autosize=1;fontSize=18;" vertex="1" parent="1">
          <mxGeometry x="50" y="710" width="30" height="120" as="geometry" />
        </mxCell>
        <mxCell id="-MDlwSNwOmf_xlIrgJuO-5" value="" style="endArrow=none;dashed=1;html=1;dashPattern=1 3;strokeWidth=2;" edge="1" parent="1">
          <mxGeometry width="50" height="50" relative="1" as="geometry">
            <mxPoint x="160" y="660" as="sourcePoint" />
            <mxPoint x="560" y="660" as="targetPoint" />
          </mxGeometry>
        </mxCell>
        <mxCell id="-MDlwSNwOmf_xlIrgJuO-6" value="HTML\CSS\JS\jQuery\Echarts" style="rounded=0;whiteSpace=wrap;html=1;" vertex="1" parent="1">
          <mxGeometry x="210" y="600" width="350" height="40" as="geometry" />
        </mxCell>
        <mxCell id="-MDlwSNwOmf_xlIrgJuO-7" value="浏览器" style="text;html=1;align=center;verticalAlign=middle;resizable=0;points=[];autosize=1;" vertex="1" parent="1">
          <mxGeometry x="145" y="610" width="50" height="20" as="geometry" />
        </mxCell>
        <mxCell id="-MDlwSNwOmf_xlIrgJuO-8" value="" style="rounded=0;whiteSpace=wrap;html=1;" vertex="1" parent="1">
          <mxGeometry x="210" y="680" width="350" height="40" as="geometry" />
        </mxCell>
        <mxCell id="-MDlwSNwOmf_xlIrgJuO-9" value="生成页面&lt;br&gt;各个模块" style="text;html=1;align=center;verticalAlign=middle;resizable=0;points=[];autosize=1;" vertex="1" parent="1">
          <mxGeometry x="140" y="685" width="60" height="30" as="geometry" />
        </mxCell>
        <mxCell id="-MDlwSNwOmf_xlIrgJuO-10" value="&lt;font style=&quot;font-size: 11px&quot;&gt;图表展示&lt;/font&gt;" style="rounded=0;whiteSpace=wrap;html=1;fontSize=18;" vertex="1" parent="1">
          <mxGeometry x="220" y="687.5" width="80" height="25" as="geometry" />
        </mxCell>
        <mxCell id="-MDlwSNwOmf_xlIrgJuO-11" value="&lt;font style=&quot;font-size: 11px&quot;&gt;地图展示&lt;/font&gt;" style="rounded=0;whiteSpace=wrap;html=1;fontSize=18;" vertex="1" parent="1">
          <mxGeometry x="310" y="687.5" width="60" height="25" as="geometry" />
        </mxCell>
        <mxCell id="-MDlwSNwOmf_xlIrgJuO-12" value="&lt;font style=&quot;font-size: 11px&quot;&gt;数据文本展示&lt;/font&gt;" style="rounded=0;whiteSpace=wrap;html=1;fontSize=18;" vertex="1" parent="1">
          <mxGeometry x="380" y="687.5" width="80" height="25" as="geometry" />
        </mxCell>
        <mxCell id="-MDlwSNwOmf_xlIrgJuO-13" value="&lt;span style=&quot;font-size: 11px&quot;&gt;......&lt;/span&gt;" style="rounded=0;whiteSpace=wrap;html=1;fontSize=18;" vertex="1" parent="1">
          <mxGeometry x="470" y="687.5" width="80" height="25" as="geometry" />
        </mxCell>
        <mxCell id="-MDlwSNwOmf_xlIrgJuO-14" value="" style="endArrow=none;dashed=1;html=1;dashPattern=1 3;strokeWidth=2;" edge="1" parent="1">
          <mxGeometry width="50" height="50" relative="1" as="geometry">
            <mxPoint x="170" y="740" as="sourcePoint" />
            <mxPoint x="570" y="740" as="targetPoint" />
            <Array as="points">
              <mxPoint x="370" y="740" />
            </Array>
          </mxGeometry>
        </mxCell>
        <mxCell id="-MDlwSNwOmf_xlIrgJuO-15" value="" style="rounded=0;whiteSpace=wrap;html=1;" vertex="1" parent="1">
          <mxGeometry x="215" y="760" width="350" height="40" as="geometry" />
        </mxCell>
        <mxCell id="-MDlwSNwOmf_xlIrgJuO-16" value="工具库" style="text;html=1;align=center;verticalAlign=middle;resizable=0;points=[];autosize=1;" vertex="1" parent="1">
          <mxGeometry x="150" y="770" width="50" height="20" as="geometry" />
        </mxCell>
        <mxCell id="-MDlwSNwOmf_xlIrgJuO-17" value="&lt;font style=&quot;font-size: 11px&quot;&gt;第三方库&lt;/font&gt;" style="rounded=0;whiteSpace=wrap;html=1;fontSize=18;" vertex="1" parent="1">
          <mxGeometry x="225" y="767.5" width="80" height="25" as="geometry" />
        </mxCell>
        <mxCell id="-MDlwSNwOmf_xlIrgJuO-18" value="&lt;font style=&quot;font-size: 11px&quot;&gt;工具类&lt;/font&gt;" style="rounded=0;whiteSpace=wrap;html=1;fontSize=18;" vertex="1" parent="1">
          <mxGeometry x="315" y="767.5" width="60" height="25" as="geometry" />
        </mxCell>
        <mxCell id="-MDlwSNwOmf_xlIrgJuO-19" value="&lt;span style=&quot;font-size: 11px&quot;&gt;配置信息&lt;/span&gt;" style="rounded=0;whiteSpace=wrap;html=1;fontSize=18;" vertex="1" parent="1">
          <mxGeometry x="385" y="767.5" width="80" height="25" as="geometry" />
        </mxCell>
        <mxCell id="-MDlwSNwOmf_xlIrgJuO-20" value="&lt;span style=&quot;font-size: 11px&quot;&gt;......&lt;/span&gt;" style="rounded=0;whiteSpace=wrap;html=1;fontSize=18;" vertex="1" parent="1">
          <mxGeometry x="475" y="767.5" width="80" height="25" as="geometry" />
        </mxCell>
        <mxCell id="-MDlwSNwOmf_xlIrgJuO-21" value="" style="endArrow=classic;html=1;fontSize=18;exitX=0.5;exitY=0;exitDx=0;exitDy=0;entryX=0.5;entryY=1;entryDx=0;entryDy=0;" edge="1" parent="1" source="-MDlwSNwOmf_xlIrgJuO-8" target="-MDlwSNwOmf_xlIrgJuO-6">
          <mxGeometry width="50" height="50" relative="1" as="geometry">
            <mxPoint x="400" y="780" as="sourcePoint" />
            <mxPoint x="450" y="730" as="targetPoint" />
          </mxGeometry>
        </mxCell>
        <mxCell id="-MDlwSNwOmf_xlIrgJuO-23" value="" style="endArrow=classic;html=1;fontSize=18;exitX=0.5;exitY=0;exitDx=0;exitDy=0;" edge="1" parent="1" source="-MDlwSNwOmf_xlIrgJuO-15">
          <mxGeometry width="50" height="50" relative="1" as="geometry">
            <mxPoint x="395" y="690" as="sourcePoint" />
            <mxPoint x="390" y="720" as="targetPoint" />
          </mxGeometry>
        </mxCell>
        <mxCell id="-MDlwSNwOmf_xlIrgJuO-24" value="" style="endArrow=none;dashed=1;html=1;dashPattern=1 3;strokeWidth=2;" edge="1" parent="1">
          <mxGeometry width="50" height="50" relative="1" as="geometry">
            <mxPoint x="170" y="820" as="sourcePoint" />
            <mxPoint x="570" y="820" as="targetPoint" />
            <Array as="points">
              <mxPoint x="370" y="820" />
            </Array>
          </mxGeometry>
        </mxCell>
        <mxCell id="-MDlwSNwOmf_xlIrgJuO-31" value="" style="edgeStyle=orthogonalEdgeStyle;rounded=0;orthogonalLoop=1;jettySize=auto;html=1;fontSize=18;entryX=0.5;entryY=1;entryDx=0;entryDy=0;" edge="1" parent="1" source="-MDlwSNwOmf_xlIrgJuO-25" target="-MDlwSNwOmf_xlIrgJuO-15">
          <mxGeometry relative="1" as="geometry" />
        </mxCell>
        <mxCell id="-MDlwSNwOmf_xlIrgJuO-38" value="" style="edgeStyle=orthogonalEdgeStyle;rounded=0;orthogonalLoop=1;jettySize=auto;html=1;fontSize=18;" edge="1" parent="1" source="-MDlwSNwOmf_xlIrgJuO-25" target="-MDlwSNwOmf_xlIrgJuO-34">
          <mxGeometry relative="1" as="geometry">
            <Array as="points">
              <mxPoint x="310" y="890" />
              <mxPoint x="310" y="890" />
            </Array>
          </mxGeometry>
        </mxCell>
        <mxCell id="-MDlwSNwOmf_xlIrgJuO-39" value="" style="edgeStyle=orthogonalEdgeStyle;rounded=0;orthogonalLoop=1;jettySize=auto;html=1;fontSize=18;" edge="1" parent="1" source="-MDlwSNwOmf_xlIrgJuO-25">
          <mxGeometry relative="1" as="geometry">
            <mxPoint x="480" y="920" as="targetPoint" />
            <Array as="points">
              <mxPoint x="480" y="920" />
            </Array>
          </mxGeometry>
        </mxCell>
        <mxCell id="-MDlwSNwOmf_xlIrgJuO-25" value="" style="rounded=0;whiteSpace=wrap;html=1;" vertex="1" parent="1">
          <mxGeometry x="215" y="840" width="350" height="40" as="geometry" />
        </mxCell>
        <mxCell id="-MDlwSNwOmf_xlIrgJuO-26" value="Network" style="text;html=1;align=center;verticalAlign=middle;resizable=0;points=[];autosize=1;" vertex="1" parent="1">
          <mxGeometry x="145" y="850" width="60" height="20" as="geometry" />
        </mxCell>
        <mxCell id="-MDlwSNwOmf_xlIrgJuO-27" value="&lt;font style=&quot;font-size: 11px&quot;&gt;POST请求&lt;/font&gt;" style="rounded=0;whiteSpace=wrap;html=1;fontSize=18;" vertex="1" parent="1">
          <mxGeometry x="270" y="847.5" width="80" height="25" as="geometry" />
        </mxCell>
        <mxCell id="-MDlwSNwOmf_xlIrgJuO-28" value="&lt;font style=&quot;font-size: 11px&quot;&gt;GET请求&lt;/font&gt;" style="rounded=0;whiteSpace=wrap;html=1;fontSize=18;" vertex="1" parent="1">
          <mxGeometry x="440" y="847.5" width="70" height="25" as="geometry" />
        </mxCell>
        <mxCell id="-MDlwSNwOmf_xlIrgJuO-32" value="&lt;font style=&quot;font-size: 9px&quot;&gt;jque&lt;font style=&quot;font-size: 9px&quot;&gt;r&lt;/font&gt;y&lt;/font&gt;" style="text;html=1;align=center;verticalAlign=middle;resizable=0;points=[];autosize=1;fontSize=18;" vertex="1" parent="1">
          <mxGeometry x="385" y="815" width="50" height="30" as="geometry" />
        </mxCell>
        <mxCell id="-MDlwSNwOmf_xlIrgJuO-33" value="" style="endArrow=none;dashed=1;html=1;dashPattern=1 3;strokeWidth=2;" edge="1" parent="1">
          <mxGeometry width="50" height="50" relative="1" as="geometry">
            <mxPoint x="170" y="900" as="sourcePoint" />
            <mxPoint x="570" y="900" as="targetPoint" />
            <Array as="points">
              <mxPoint x="370" y="900" />
            </Array>
          </mxGeometry>
        </mxCell>
        <mxCell id="-MDlwSNwOmf_xlIrgJuO-34" value="" style="rounded=0;whiteSpace=wrap;html=1;" vertex="1" parent="1">
          <mxGeometry x="215" y="920" width="350" height="40" as="geometry" />
        </mxCell>
        <mxCell id="-MDlwSNwOmf_xlIrgJuO-35" value="API" style="text;html=1;align=center;verticalAlign=middle;resizable=0;points=[];autosize=1;" vertex="1" parent="1">
          <mxGeometry x="160" y="930" width="30" height="20" as="geometry" />
        </mxCell>
        <mxCell id="-MDlwSNwOmf_xlIrgJuO-40" value="&lt;span style=&quot;font-size: 11px&quot;&gt;后台接口&lt;/span&gt;" style="rounded=0;whiteSpace=wrap;html=1;fontSize=18;" vertex="1" parent="1">
          <mxGeometry x="330" y="930" width="140" height="22.5" as="geometry" />
        </mxCell>
      </root>
    </mxGraphModel>
  </diagram>
</mxfile>
